<?xml version="1.0" encoding="UTF-8"?>
<svg id="Layer_1" data-name="Layer 1" xmlns="http://www.w3.org/2000/svg" viewBox="0 0 1192 1192">
  <defs>
    <style>
      .cls-1, .cls-2 {
        stroke-width: 1px;
      }

      .cls-2 {
        fill: #fff;
      }
    </style>
  </defs>
  <g>
    <!-- <rect class="cls-2" x=".5" y=".5" width="297" height="297"/> -->
    <path class="cls-1" d="M297,1v296H1V1h296M298,0H0v298h298V0h0Z"/>
  </g>
  <g>
    <!-- <rect class="cls-2" x="298.5" y=".5" width="297" height="297"/> -->
    <path class="cls-1" d="M595,1v296h-296V1h296M596,0h-298v298h298V0h0Z"/>
  </g>
  <g>
    <!-- <rect class="cls-2" x=".5" y="298.5" width="297" height="297"/> -->
    <path class="cls-1" d="M297,299v296H1v-296h296M298,298H0v298h298v-298h0Z"/>
  </g>
  <g>
    <!-- <rect class="cls-2" x="298.5" y="298.5" width="297" height="297"/> -->
    <path class="cls-1" d="M595,299v296h-296v-296h296M596,298h-298v298h298v-298h0Z"/>
  </g>
  <g>
    <!-- <rect class="cls-2" x="596.5" y=".5" width="297" height="297"/> -->
    <path class="cls-1" d="M893,1v296h-296V1h296M894,0h-298v298h298V0h0Z"/>
  </g>
  <g>
    <!-- <rect class="cls-2" x="894.5" y=".5" width="297" height="297"/> -->
    <path class="cls-1" d="M1191,1v296h-296V1h296M1192,0h-298v298h298V0h0Z"/>
  </g>
  <g>
    <!-- <rect class="cls-2" x="596.5" y="298.5" width="297" height="297"/> -->
    <path class="cls-1" d="M893,299v296h-296v-296h296M894,298h-298v298h298v-298h0Z"/>
  </g>
  <g>
    <!-- <rect class="cls-2" x="894.5" y="298.5" width="297" height="297"/> -->
    <path class="cls-1" d="M1191,299v296h-296v-296h296M1192,298h-298v298h298v-298h0Z"/>
  </g>
  <g>
    <!-- <rect class="cls-2" x=".5" y="596.5" width="297" height="297"/> -->
    <path class="cls-1" d="M297,597v296H1v-296h296M298,596H0v298h298v-298h0Z"/>
  </g>
  <g>
    <!-- <rect class="cls-2" x="298.5" y="596.5" width="297" height="297"/> -->
    <path class="cls-1" d="M595,597v296h-296v-296h296M596,596h-298v298h298v-298h0Z"/>
  </g>
  <g>
    <!-- <rect class="cls-2" x=".5" y="894.5" width="297" height="297"/> -->
    <path class="cls-1" d="M297,895v296H1v-296h296M298,894H0v298h298v-298h0Z"/>
  </g>
  <g>
    <!-- <rect class="cls-2" x="298.5" y="894.5" width="297" height="297"/> -->
    <path class="cls-1" d="M595,895v296h-296v-296h296M596,894h-298v298h298v-298h0Z"/>
  </g>
  <g>
    <!-- <rect class="cls-2" x="596.5" y="596.5" width="297" height="297"/> -->
    <path class="cls-1" d="M893,597v296h-296v-296h296M894,596h-298v298h298v-298h0Z"/>
  </g>
  <g>
    <!-- <rect class="cls-2" x="894.5" y="596.5" width="297" height="297"/> -->
    <path class="cls-1" d="M1191,597v296h-296v-296h296M1192,596h-298v298h298v-298h0Z"/>
  </g>
  <g>
    <!-- <rect class="cls-2" x="596.5" y="894.5" width="297" height="297"/> -->
    <path class="cls-1" d="M893,895v296h-296v-296h296M894,894h-298v298h298v-298h0Z"/>
  </g>
  <g>
    <!-- <rect class="cls-2" x="894.5" y="894.5" width="297" height="297"/> -->
    <path class="cls-1" d="M1191,895v296h-296v-296h296M1192,894h-298v298h298v-298h0Z"/>
  </g>
</svg>